HIERARCHY
ROOT Hips
{
	OFFSET -3.958830 18.904000 13.208200
	CHANNELS 6 Xposition Yposition Zposition Zrotation Yrotation Xrotation 
	JOINT LHipJoint
	{
		OFFSET 0.000000 0.000000 0.000000
		CHANNELS 3 Zrotation Yrotation Xrotation
		JOINT LeftUpLeg
		{
			OFFSET 1.800000 -1.400000 0.085000
			CHANNELS 3 Zrotation Yrotation Xrotation
			JOINT LeftLeg
			{
				OFFSET 2.215000 -6.000000 0.000000
				CHANNELS 3 Zrotation Yrotation Xrotation
				JOINT LeftFoot
				{
					OFFSET 2.500000 -6.900000 0.000000
					CHANNELS 3 Zrotation Yrotation Xrotation
					JOINT LeftToeBase
					{
						OFFSET 0.200000 -0.500000 1.950000
						CHANNELS 3 Zrotation Yrotation Xrotation
						End Site
						{
							OFFSET 0.000000 0.000000 0.000000
						}
					}
				}
			}
		}
	}
	JOINT RHipJoint
	{
		OFFSET 0.000000 0.000000 0.000000
		CHANNELS 3 Zrotation Yrotation Xrotation
		JOINT RightUpLeg
		{
			OFFSET -1.800000 -1.400000 0.085000
			CHANNELS 3 Zrotation Yrotation Xrotation
			JOINT RightLeg
			{
				OFFSET -2.215000 -6.000000 0.000000
				CHANNELS 3 Zrotation Yrotation Xrotation
				JOINT RightFoot
				{
					OFFSET -2.500000 -6.900000 0.000000
					CHANNELS 3 Zrotation Yrotation Xrotation
					JOINT RightToeBase
					{
						OFFSET -0.200000 -0.500000 1.950000
						CHANNELS 3 Zrotation Yrotation Xrotation
						End Site
						{
							OFFSET 0.000000 0.000000 0.000000
						}
					}
				}
			}
		}
	}
	JOINT LowerBack
	{
		OFFSET 0.000000 0.000000 0.000000
		CHANNELS 3 Zrotation Yrotation Xrotation
		JOINT Spine
		{
			OFFSET -0.087000 1.940000 -0.288900
			CHANNELS 3 Zrotation Yrotation Xrotation
			JOINT Spine1
			{
				OFFSET 0.000000 1.950000 0.060000
				CHANNELS 3 Zrotation Yrotation Xrotation
				JOINT Neck
				{
					OFFSET 0.000000 0.000000 0.000000
					CHANNELS 3 Zrotation Yrotation Xrotation
					JOINT Neck1
					{
						OFFSET 0.000000 1.600000 0.340000
						CHANNELS 3 Zrotation Yrotation Xrotation
						JOINT Head
						{
							OFFSET 0.000000 1.667000 -0.240000
							CHANNELS 3 Zrotation Yrotation Xrotation
							End Site
							{
								OFFSET 0.000000 0.000000 0.000000
							}
						}
					}
				}
				JOINT LeftShoulder
				{
					OFFSET 0.000000 0.000000 0.000000
					CHANNELS 3 Zrotation Yrotation Xrotation
					JOINT LeftArm
					{
						OFFSET 2.700000 1.550000 -0.730000
						CHANNELS 3 Zrotation Yrotation Xrotation
						JOINT LeftForeArm
						{
							OFFSET 5.450000 0.000000 0.000000
							CHANNELS 3 Zrotation Yrotation Xrotation
							JOINT LeftHand
							{
								OFFSET 3.450000 0.000000 0.000000
								CHANNELS 3 Zrotation Yrotation Xrotation
								JOINT LeftHandIndex1
								{
									OFFSET 0.750000 0.000000 0.000000
									CHANNELS 3 Zrotation Yrotation Xrotation
									End Site
									{
										OFFSET 0.000000 0.000000 0.000000
									}
								}
							}
						}
					}
				}
				JOINT RightShoulder
				{
					OFFSET 0.000000 0.000000 0.000000
					CHANNELS 3 Zrotation Yrotation Xrotation
					JOINT RightArm
					{
						OFFSET -2.700000 1.550000 -0.730000
						CHANNELS 3 Zrotation Yrotation Xrotation
						JOINT RightForeArm
						{
							OFFSET -5.450000 0.000000 0.000000
							CHANNELS 3 Zrotation Yrotation Xrotation
							JOINT RightHand
							{
								OFFSET -3.450000 0.000000 0.000000
								CHANNELS 3 Zrotation Yrotation Xrotation
								JOINT RightHandIndex1
								{
									OFFSET -0.750000 0.000000 0.000000
									CHANNELS 3 Zrotation Yrotation Xrotation
									End Site
									{
										OFFSET 0.000000 0.000000 0.000000
									}
								}
							}
						}
					}
				}
			}
		}
	}
}
MOTION
Frames: 11
Frame Time: 0.016667
0.763710 17.524400 -4.571410 -15.401502 -6.641140 -2.206917 -14.859965 11.057994 1.837533 9.181531 -0.871082 -4.615665 -6.857584 4.093460 0.115791 -0.260136 3.967925 3.458628 0.519490 0.348520 0.177930 19.075398 -8.362808 6.054292 -19.472255 5.467034 -53.745316 88.991688 -46.249819 28.467654 -2.820888 -12.308440 0.567611 0.224740 0.387480 0.240550 -5.290943 -0.551179 -8.440333 40.921710 -10.863373 11.544729 -20.886562 -2.820512 11.204904 5.108771 -5.539714 -12.857852 -11.166234 -1.821888 26.810127 0.469220 -6.027610 -8.357800 -5.721919 -25.758859 4.066288 -20.137432 -30.217837 -2.124427 2.357120 -80.898262 -5.219864 -3.449762 3.410832 0.216000 0.182330 -0.118890 0.351740 -4.712112 26.093006 9.699556 23.863692 10.707498 -11.533899 -160.805292 78.841922 -168.553012 1.483849 -2.376273 -0.052530 0.209420 -0.107000 0.039780 
0.810520 17.539930 -4.489010 -17.024987 -13.941474 -0.059171 -14.861937 11.039717 1.842888 11.013115 -1.059472 -4.631015 -7.143360 4.251470 0.635760 -0.283875 4.076417 3.403183 0.614030 0.465000 0.237810 19.029626 -8.525243 5.944765 -17.569743 7.325583 -51.973666 86.398220 -47.128182 30.683777 -2.893263 -12.534365 0.487594 0.306060 0.372140 0.262440 -5.373403 -0.262321 -8.324184 43.237480 -11.091930 10.858259 -21.304846 -3.165267 11.457643 5.245449 -6.367477 -12.053898 -12.196895 -0.086959 26.112415 -0.054420 -4.728520 -9.399490 -5.417084 -24.030466 4.380016 -19.708641 -28.578450 -1.848344 -2.858221 -84.289026 -1.520181 -3.474330 3.508506 0.212760 0.186410 -0.091130 0.378440 -5.219436 24.951335 7.914138 20.854643 13.680399 -10.695636 -167.890864 79.863462 -175.815023 1.440725 -2.321720 -0.033600 0.215810 -0.150090 0.039960 
0.895410 17.603580 -4.419730 -20.077414 -26.999226 4.284725 -14.880527 10.941828 1.762080 12.590739 -1.097454 -4.415455 -6.765396 4.332259 1.696195 -0.395344 4.157335 3.321281 0.790620 0.711330 0.300570 18.974411 -8.827387 5.839453 -17.080991 8.939825 -48.283577 77.376784 -46.421114 35.682571 -2.932237 -12.816195 0.340374 0.491350 0.384170 0.329030 -5.607282 0.365018 -8.130010 46.421600 -10.709225 10.439032 -22.517102 -3.150950 14.553516 5.345293 -7.071697 -11.318697 -13.166788 1.317531 25.228692 0.054070 -4.617550 -11.679090 -1.140686 -24.030337 4.072915 -22.634028 -31.179441 -2.904930 22.557519 -82.023464 -23.161511 -3.452902 3.168161 0.170060 0.226640 -0.055500 0.419690 -9.522573 24.398590 6.644169 21.700533 17.991096 -9.380863 -160.239878 77.050452 -168.394462 1.325068 -2.518845 0.022690 0.261980 -0.172630 0.066920 
0.930810 17.597790 -4.266480 -22.461307 -38.276695 10.919693 -14.952050 10.800847 1.727852 11.977059 -1.245567 -5.398795 -6.839283 4.172971 0.852662 -0.462564 4.121193 3.385314 0.680080 0.566340 0.267240 18.962592 -8.606365 5.992883 -17.508064 9.355485 -51.929472 73.727933 -47.826076 39.117362 -2.938335 -13.177361 0.270712 0.457080 0.458610 0.228080 -5.624036 0.210950 -8.249764 45.863136 -10.294418 9.974406 -21.909951 -2.977849 13.220450 5.102738 -7.047268 -10.848143 -12.897452 0.550474 24.823730 0.505260 -5.459080 -10.737710 -0.969831 -22.710670 3.522231 -25.404491 -32.974226 -1.506121 42.716860 -84.906927 -41.113799 -3.431686 2.436375 0.177294 0.242910 -0.146440 0.379250 -9.301468 23.352496 6.310195 19.702226 18.040396 -7.907192 -170.538033 71.420074 179.884508 1.323139 -2.324174 -0.098080 0.363460 -0.113820 0.035400 
0.935100 17.590270 -4.168060 -27.120657 -47.494463 17.477528 -14.889592 10.798846 1.598555 12.313050 -1.407257 -5.834114 -5.933930 4.149207 1.598293 -0.621342 4.190142 3.400413 0.594060 0.405260 0.273340 19.050455 -8.528214 6.033532 -16.794313 9.712621 -53.750067 72.280804 -49.600785 41.491076 -2.971658 -13.550634 0.179794 0.435980 0.530960 0.187340 -5.502401 0.187614 -8.374327 44.937638 -10.943513 10.068473 -21.732620 -3.268214 14.097273 5.752842 -5.964940 -10.974297 -10.623187 -0.011238 24.521286 -0.616840 -4.852410 -9.431810 -0.357564 -21.945895 4.159594 -24.308034 -35.093889 3.437415 91.471480 -80.358137 -83.415340 -3.845944 -0.744498 0.232500 0.295250 -0.233050 0.336470 -10.995432 22.190413 6.486436 19.348863 18.665384 -7.034578 -158.947152 68.324959 -164.954182 1.333439 -2.436585 -0.242270 0.425510 -0.045590 -0.043470 
0.932550 17.616020 -4.096080 -35.186430 -55.880314 25.753553 -14.653798 11.002514 1.519723 13.717808 -1.343408 -5.510558 -5.591283 4.453053 3.428848 -0.509442 4.205492 3.305385 0.696960 0.537950 0.317510 19.270057 -8.593039 5.821169 -16.834129 7.814199 -51.372634 82.324829 -45.607613 31.734679 -2.825154 -12.527679 0.405698 0.444210 0.395230 0.266220 -5.244916 0.319547 -8.476403 43.909446 -11.455191 11.120653 -20.867346 -3.535434 16.261757 6.027155 -4.587024 -11.717352 -8.475583 -1.392173 25.845280 -0.232870 -5.288250 -10.709340 -0.085428 -24.503376 5.166517 -22.230279 -35.199253 3.374472 97.743311 -76.719834 -89.056244 -3.946421 0.077292 0.211300 0.232360 -0.140140 0.342410 -11.799856 23.829062 7.548157 21.474048 19.951433 -7.282492 -143.748561 66.757223 -146.184894 1.483170 -2.550023 -0.091230 0.275120 -0.111320 -0.018310 
0.915730 17.638110 -3.977340 -49.569524 -63.996248 41.875643 -14.225558 11.235606 1.424680 14.026689 -1.158919 -5.920370 -5.254086 4.582724 4.073133 -0.573018 4.315389 3.238433 0.754870 0.594970 0.367530 19.760477 -8.186367 5.631415 -20.203176 5.403824 -48.600231 88.669342 -40.664726 24.374761 -2.676441 -11.694043 0.589738 0.501470 0.366710 0.239470 -4.851711 1.036062 -8.665101 44.473213 -11.021130 10.164069 -21.965758 -3.620515 16.761083 6.216595 -3.681862 -10.492297 -7.240129 -3.151958 27.753040 1.064040 -7.361350 -13.199120 0.190434 -25.708095 3.036675 -22.310896 -35.482807 -1.642084 76.772263 -81.382634 -65.987357 -3.277978 0.251292 0.268480 0.179740 -0.109470 0.331170 -12.622293 24.261234 7.497341 22.121521 25.631402 -3.351229 -121.252906 65.440459 -116.305387 1.792435 -1.802455 -0.110440 0.343230 -0.108060 -0.035060 
0.864800 17.643170 -3.870670 -73.854008 -70.443475 68.466795 -14.329958 12.160893 1.431724 12.859412 -0.853328 -6.928558 -3.781081 4.666042 5.509757 -0.520791 4.368332 3.250809 0.622970 0.467510 0.170990 19.700061 -7.174182 5.569406 -21.345199 5.605338 -48.041085 86.791452 -38.590613 24.106562 -2.562303 -11.529260 0.687572 0.415210 0.478240 0.204100 -4.695740 1.573882 -8.880651 43.540245 -11.442652 10.662655 -22.044671 -3.819046 16.173558 5.847409 -4.764490 -10.912152 -9.087822 -3.634944 27.788081 3.747800 -10.083390 -12.342470 -3.734992 -26.052054 5.494994 -18.700802 -32.642902 1.041601 95.144965 -75.212295 -81.024456 -3.641093 -0.026579 0.235450 0.193850 -0.190720 0.351550 -8.159231 26.280035 5.972613 15.636647 29.527102 -1.389127 -112.199132 67.757432 -104.208134 1.961906 -0.574722 -0.132420 0.383390 -0.025010 0.034160 
0.806590 17.599230 -3.813980 -119.135097 -70.777303 114.638679 -15.806451 12.481502 1.429389 13.270429 -0.519989 -5.621350 -3.931023 5.052120 6.441881 -0.453730 4.604571 3.173367 0.571320 0.376240 0.142610 18.232752 -6.753259 5.538465 -20.832396 7.675981 -44.632264 87.784228 -29.895210 18.718494 -2.356810 -10.533370 0.939186 0.332650 0.442060 0.184440 -6.090780 1.702135 -9.187141 41.250001 -9.989991 13.382661 -20.020715 -2.417976 16.443508 5.982549 -5.044465 -11.679007 -9.641009 -3.674527 29.463156 6.476590 -11.079020 -14.267950 -5.743138 -27.237360 8.168174 -19.034048 -28.168616 0.280050 102.026824 -70.838799 -87.589931 -3.780727 0.932483 0.319700 0.109130 -0.163630 0.324590 -6.350776 29.237795 4.573728 10.825038 30.495339 -4.193877 -100.828219 71.365455 -83.604217 1.492915 2.409740 -0.142060 0.373000 0.006500 0.024870 
0.820590 17.548710 -3.761590 -147.928770 -60.031113 145.547578 -15.952518 11.442009 1.100171 12.501925 -0.528462 -4.912943 -3.665904 4.830951 7.309896 -0.554582 4.359060 3.207740 0.462230 0.170440 0.150300 18.106698 -7.744075 5.900853 -20.749742 12.086174 -48.150911 81.385454 -26.257257 20.682385 -2.222891 -10.199482 0.958002 0.200740 0.377290 0.236680 -6.759325 1.439059 -9.406842 39.971535 -7.352154 16.055549 -19.411970 0.841049 14.614553 6.611323 -4.876506 -11.709975 -9.339128 -4.519650 32.165426 6.279660 -11.420650 -15.468250 -8.431857 -29.280784 9.502460 -18.842639 -24.840756 -2.236248 97.131846 -69.324434 -78.077088 -3.602573 0.901127 0.436770 0.062690 -0.134500 0.211220 -4.814005 32.948539 2.260132 12.659947 29.825541 -12.581405 -78.288111 82.993259 -63.421162 0.741608 2.784030 -0.164430 0.297250 0.112240 -0.050770 
0.791880 17.433900 -3.711630 -155.303928 -51.134436 154.554328 -15.529488 11.293085 0.923901 12.143239 -0.666623 -6.228070 -2.410178 4.846483 10.685911 -0.599536 4.207689 3.266290 0.379600 0.027840 0.150680 18.496865 -8.143887 6.256263 -22.791516 11.680271 -49.743776 79.232746 -22.415881 18.358427 -2.046139 -9.612607 1.118595 0.108150 0.382600 0.231750 -6.448431 1.091623 -9.373117 37.980282 -6.444249 16.445768 -18.337252 1.641676 14.443958 6.619045 -2.907646 -12.954898 -6.279047 -6.315904 33.668833 6.166230 -12.131960 -13.999430 -8.810879 -30.918075 9.899239 -20.658324 -24.317559 -3.893922 92.548568 -66.663525 -70.048538 -3.519920 1.191713 0.477980 0.059780 -0.144250 0.184810 -4.572420 33.808172 4.121083 15.663809 29.096080 -13.690410 -75.461139 81.105130 -59.632757 0.814077 2.102585 -0.202910 0.285820 0.138170 -0.083110 
